<svg width="32" height="32" viewBox="0 0 32 32" fill="none" xmlns="http://www.w3.org/2000/svg">
<path d="M15.3666 3.06006C15.4251 2.94201 15.5153 2.84264 15.6272 2.77316C15.7392 2.70369 15.8683 2.66687 16 2.66687C16.1317 2.66687 16.2608 2.70369 16.3727 2.77316C16.4846 2.84264 16.5749 2.94201 16.6333 3.06006L19.7133 9.29873C19.9162 9.70935 20.2157 10.0646 20.5861 10.334C20.9566 10.6034 21.3868 10.7789 21.84 10.8454L28.728 11.8534C28.8585 11.8723 28.9811 11.9274 29.082 12.0123C29.1828 12.0973 29.2579 12.2088 29.2987 12.3342C29.3395 12.4596 29.3443 12.5939 29.3128 12.722C29.2812 12.85 29.2144 12.9667 29.12 13.0587L24.1386 17.9094C23.8101 18.2295 23.5643 18.6247 23.4224 19.0609C23.2805 19.4971 23.2467 19.9612 23.324 20.4134L24.5 27.2667C24.523 27.3972 24.5089 27.5315 24.4593 27.6543C24.4097 27.7771 24.3266 27.8835 24.2194 27.9614C24.1122 28.0392 23.9853 28.0854 23.8531 28.0946C23.721 28.1038 23.5889 28.0757 23.472 28.0134L17.3146 24.7761C16.9089 24.563 16.4576 24.4517 15.9993 24.4517C15.5411 24.4517 15.0897 24.563 14.684 24.7761L8.52798 28.0134C8.41109 28.0753 8.27917 28.1031 8.14725 28.0937C8.01532 28.0844 7.88867 28.0381 7.7817 27.9604C7.67474 27.8826 7.59176 27.7763 7.54219 27.6537C7.49262 27.5311 7.47846 27.397 7.50131 27.2667L8.67598 20.4147C8.75357 19.9624 8.71996 19.4979 8.57803 19.0615C8.4361 18.625 8.19012 18.2296 7.86131 17.9094L2.87998 13.0601C2.78477 12.9681 2.7173 12.8513 2.68526 12.7228C2.65322 12.5944 2.65789 12.4596 2.69875 12.3336C2.73961 12.2077 2.815 12.0959 2.91635 12.0107C3.01769 11.9256 3.14092 11.8706 3.27198 11.8521L10.1586 10.8454C10.6123 10.7794 11.0432 10.6041 11.4141 10.3347C11.785 10.0653 12.0849 9.70976 12.288 9.29873L15.3666 3.06006Z" stroke="#007595" stroke-width="2.66667" stroke-linecap="round" stroke-linejoin="round"/>
</svg>
