<svg width="28" height="28" viewBox="0 0 28 28" fill="none" xmlns="http://www.w3.org/2000/svg">
<path d="M12.8333 2.33331V4.66665" stroke="white" stroke-width="2.33333" stroke-linecap="round" stroke-linejoin="round"/>
<path d="M5.83331 2.33331V4.66665" stroke="white" stroke-width="2.33333" stroke-linecap="round" stroke-linejoin="round"/>
<path d="M5.83331 3.5H4.66665C4.04781 3.5 3.45432 3.74583 3.01673 4.18342C2.57915 4.621 2.33331 5.21449 2.33331 5.83333V10.5C2.33331 12.3565 3.07081 14.137 4.38357 15.4497C5.69632 16.7625 7.4768 17.5 9.33331 17.5C11.1898 17.5 12.9703 16.7625 14.2831 15.4497C15.5958 14.137 16.3333 12.3565 16.3333 10.5V5.83333C16.3333 5.21449 16.0875 4.621 15.6499 4.18342C15.2123 3.74583 14.6188 3.5 14 3.5H12.8333" stroke="white" stroke-width="2.33333" stroke-linecap="round" stroke-linejoin="round"/>
<path d="M9.33331 17.5C9.33331 19.3565 10.0708 21.137 11.3836 22.4497C12.6963 23.7625 14.4768 24.5 16.3333 24.5C18.1898 24.5 19.9703 23.7625 21.2831 22.4497C22.5958 21.137 23.3333 19.3565 23.3333 17.5V14" stroke="white" stroke-width="2.33333" stroke-linecap="round" stroke-linejoin="round"/>
<path d="M23.3333 14C24.622 14 25.6667 12.9553 25.6667 11.6666C25.6667 10.378 24.622 9.33331 23.3333 9.33331C22.0447 9.33331 21 10.378 21 11.6666C21 12.9553 22.0447 14 23.3333 14Z" stroke="white" stroke-width="2.33333" stroke-linecap="round" stroke-linejoin="round"/>
</svg>
