<svg width="28" height="28" viewBox="0 0 28 28" fill="none" xmlns="http://www.w3.org/2000/svg">
<path d="M14 8.16669V12.8334" stroke="white" stroke-width="2.33333" stroke-linecap="round" stroke-linejoin="round"/>
<path d="M16.3334 24.5V21C16.3334 20.3812 16.0875 19.7877 15.6499 19.3501C15.2124 18.9125 14.6189 18.6667 14 18.6667C13.3812 18.6667 12.7877 18.9125 12.3501 19.3501C11.9125 19.7877 11.6667 20.3812 11.6667 21V24.5" stroke="white" stroke-width="2.33333" stroke-linecap="round" stroke-linejoin="round"/>
<path d="M16.3334 10.5H11.6667" stroke="white" stroke-width="2.33333" stroke-linecap="round" stroke-linejoin="round"/>
<path d="M21 12.8333H23.3333C23.9522 12.8333 24.5456 13.0791 24.9832 13.5167C25.4208 13.9543 25.6666 14.5478 25.6666 15.1666V22.1666C25.6666 22.7855 25.4208 23.379 24.9832 23.8166C24.5456 24.2541 23.9522 24.5 23.3333 24.5H4.66665C4.04781 24.5 3.45432 24.2541 3.01673 23.8166C2.57915 23.379 2.33331 22.7855 2.33331 22.1666V11.6666C2.33331 11.0478 2.57915 10.4543 3.01673 10.0167C3.45432 9.57915 4.04781 9.33331 4.66665 9.33331H6.99998" stroke="white" stroke-width="2.33333" stroke-linecap="round" stroke-linejoin="round"/>
<path d="M21 24.5V5.83333C21 5.21449 20.7542 4.621 20.3166 4.18342C19.879 3.74583 19.2855 3.5 18.6667 3.5H9.33333C8.71449 3.5 8.121 3.74583 7.68342 4.18342C7.24583 4.621 7 5.21449 7 5.83333V24.5" stroke="white" stroke-width="2.33333" stroke-linecap="round" stroke-linejoin="round"/>
</svg>
