<svg width="32" height="32" viewBox="0 0 32 32" fill="none" xmlns="http://www.w3.org/2000/svg">
<path d="M29.3334 22.6667C29.3334 23.3739 29.0524 24.0522 28.5523 24.5523C28.0522 25.0524 27.3739 25.3333 26.6667 25.3333H9.10402C8.39683 25.3335 7.71867 25.6145 7.21869 26.1147L4.28269 29.0507C4.15029 29.183 3.98162 29.2732 3.79801 29.3097C3.61439 29.3462 3.42406 29.3275 3.2511 29.2558C3.07813 29.1842 2.93029 29.0629 2.82627 28.9072C2.72225 28.7516 2.66671 28.5685 2.66669 28.3813V6.66667C2.66669 5.95942 2.94764 5.28115 3.44774 4.78105C3.94783 4.28095 4.62611 4 5.33335 4H26.6667C27.3739 4 28.0522 4.28095 28.5523 4.78105C29.0524 5.28115 29.3334 5.95942 29.3334 6.66667V22.6667Z" stroke="#007595" stroke-width="2.66667" stroke-linecap="round" stroke-linejoin="round"/>
</svg>
