<svg width="28" height="28" viewBox="0 0 28 28" fill="none" xmlns="http://www.w3.org/2000/svg">
<path d="M16.1374 19.3293C16.3783 19.44 16.6498 19.4653 16.907 19.401C17.1643 19.3367 17.3919 19.1868 17.5525 18.9758L17.9667 18.4333C18.1841 18.1435 18.4659 17.9083 18.7899 17.7463C19.1139 17.5843 19.4711 17.5 19.8334 17.5H23.3334C23.9522 17.5 24.5457 17.7458 24.9833 18.1834C25.4209 18.621 25.6667 19.2145 25.6667 19.8333V23.3333C25.6667 23.9522 25.4209 24.5456 24.9833 24.9832C24.5457 25.4208 23.9522 25.6666 23.3334 25.6666C17.7638 25.6666 12.4224 23.4542 8.48413 19.5159C4.54587 15.5776 2.33337 10.2362 2.33337 4.66665C2.33337 4.04781 2.57921 3.45432 3.01679 3.01673C3.45438 2.57915 4.04787 2.33331 4.66671 2.33331H8.16671C8.78555 2.33331 9.37904 2.57915 9.81662 3.01673C10.2542 3.45432 10.5 4.04781 10.5 4.66665V8.16665C10.5 8.52889 10.4157 8.88615 10.2537 9.21015C10.0917 9.53414 9.8565 9.81597 9.56671 10.0333L9.02071 10.4428C8.80653 10.6064 8.65556 10.839 8.59346 11.1012C8.53136 11.3634 8.56195 11.6391 8.68004 11.8813C10.2745 15.1198 12.8969 17.7389 16.1374 19.3293Z" stroke="white" stroke-width="2.33333" stroke-linecap="round" stroke-linejoin="round"/>
</svg>
